<?xml version="1.0" ?>
<!-- Uploaded to: SVG Repo, www.svgrepo.com, Generator: SVG Repo Mixer Tools -->
<svg width="800px" height="800px" viewBox="0 0 512 512" id="Layer_1" version="1.1" xml:space="preserve" xmlns="http://www.w3.org/2000/svg" xmlns:xlink="http://www.w3.org/1999/xlink">
<style type="text/css">
	.st0{fill:#00B4D8;}
</style>
<g>
<g>
<path d="M382.3,340.5h-41.7c-4.7,0-8.6-3.8-8.6-8.6s3.8-8.6,8.6-8.6h33.2V178.1H140.4v40.3c0,4.7-3.8,8.6-8.6,8.6    s-8.6-3.8-8.6-8.6v-48.9c0-4.7,3.8-8.6,8.6-8.6h250.4c4.7,0,8.6,3.8,8.6,8.6v162.4C390.8,336.6,387,340.5,382.3,340.5z"/>
</g>
<g>
<path d="M421.9,302.2h-39.6c-4.7,0-8.6-3.8-8.6-8.6c0-4.7,3.8-8.6,8.6-8.6h31.1V139.8H180v29.8c0,4.7-3.8,8.6-8.6,8.6    s-8.6-3.8-8.6-8.6v-38.3c0-4.7,3.8-8.6,8.6-8.6h250.4c4.7,0,8.6,3.8,8.6,8.6v162.4C430.4,298.3,426.6,302.2,421.9,302.2z"/>
</g>
<g>
<path d="M257.1,293.8c-1.9,0-3.9-0.7-5.5-2l-41.7-34.5c-3.6-3-4.2-8.4-1.1-12.1c3-3.6,8.4-4.2,12.1-1.1l36.3,30l36.3-30    c3.6-3,9-2.5,12.1,1.1c3,3.6,2.5,9-1.1,12.1l-41.7,34.5C260.9,293.2,259,293.8,257.1,293.8z"/>
</g>
<g>
<polygon class="st0" points="126.2,218.4 101.8,218.4 109,236.8 178.2,299.6 215.3,331.3 262.5,294.3 335.7,223.1   "/>
</g>
<g>
<path d="M340.5,389.3H90.1c-4.7,0-8.6-3.8-8.6-8.6V218.4c0-4.7,3.8-8.6,8.6-8.6h250.4c4.7,0,8.6,3.8,8.6,8.6v162.4    C349.1,385.5,345.3,389.3,340.5,389.3z M98.7,372.2H332V227H98.7V372.2z"/>
</g>
<g>
<path d="M90.1,389.3c-2.2,0-4.5-0.9-6.1-2.6c-3.3-3.4-3.2-8.8,0.2-12.1l77.2-75l-77.2-75c-3.4-3.3-3.5-8.7-0.2-12.1    c3.3-3.4,8.7-3.5,12.1-0.2l83.5,81.2c1.7,1.6,2.6,3.8,2.6,6.1c0,2.3-0.9,4.5-2.6,6.1l-83.5,81.2C94.4,388.5,92.3,389.3,90.1,389.3    z"/>
</g>
<g>
<path d="M340.5,389.3c-2.2,0-4.3-0.8-6-2.4l-83.5-81.2c-1.7-1.6-2.6-3.8-2.6-6.1c0-2.3,0.9-4.5,2.6-6.1l83.5-81.2    c3.4-3.3,8.8-3.2,12.1,0.2c3.3,3.4,3.2,8.8-0.2,12.1l-77.2,75l77.2,75c3.4,3.3,3.5,8.7,0.2,12.1    C345,388.5,342.8,389.3,340.5,389.3z"/>
</g>
<g>
<path d="M215.3,342.7c-1.9,0-3.9-0.7-5.5-2l-41.7-34.5c-3.6-3-4.2-8.4-1.1-12.1c3-3.6,8.4-4.2,12.1-1.1l36.3,30l36.3-30    c3.6-3,9-2.5,12.1,1.1c3,3.6,2.5,9-1.1,12.1l-41.7,34.5C219.2,342,217.3,342.7,215.3,342.7z"/>
</g>
</g>
</svg>