<?xml version="1.0" ?>
<!-- Uploaded to: SVG Repo, www.svgrepo.com, Generator: SVG Repo Mixer Tools -->
<svg width="800px" height="800px" viewBox="0 0 512 512" id="Layer_1" version="1.1" xml:space="preserve" xmlns="http://www.w3.org/2000/svg" xmlns:xlink="http://www.w3.org/1999/xlink">
<style type="text/css">
	.st0{fill:#00B4D8;}
</style>
<g>
<g>
<path d="M344.6,373.3H167.4c-4.7,0-8.6-3.8-8.6-8.6V147.3c0-4.7,3.8-8.6,8.6-8.6h177.2c4.7,0,8.6,3.8,8.6,8.6v217.4    C353.2,369.4,349.3,373.3,344.6,373.3z M176,356.2H336V155.8H176V356.2z"/>
</g>
<g>
<rect class="st0" height="55.1" width="55.1" x="289.5" y="147.3"/>
</g>
<g>
<path d="M344.6,210.9h-55.1c-4.7,0-8.6-3.8-8.6-8.6v-55.1c0-4.7,3.8-8.6,8.6-8.6h55.1c4.7,0,8.6,3.8,8.6,8.6v55.1    C353.2,207.1,349.3,210.9,344.6,210.9z M298.1,193.8H336v-37.9h-37.9V193.8z"/>
</g>
<g>
<path d="M282.3,246.2h-85.4c-4.7,0-8.6-3.8-8.6-8.6s3.8-8.6,8.6-8.6h85.4c4.7,0,8.6,3.8,8.6,8.6S287,246.2,282.3,246.2z"/>
</g>
<g>
<path d="M239.6,275.7h-42.7c-4.7,0-8.6-3.8-8.6-8.6s3.8-8.6,8.6-8.6h42.7c4.7,0,8.6,3.8,8.6,8.6S244.4,275.7,239.6,275.7z"/>
</g>
<g>
<path d="M239.6,305.3h-42.7c-4.7,0-8.6-3.8-8.6-8.6s3.8-8.6,8.6-8.6h42.7c4.7,0,8.6,3.8,8.6,8.6S244.4,305.3,239.6,305.3z"/>
</g>
</g>
</svg>